<?xml version="1.0" encoding="utf-8"?>
<!-- Generator: Adobe Illustrator 26.0.1, SVG Export Plug-In . SVG Version: 6.00 Build 0)  -->
<svg version="1.1" id="The_Pirate_Bay_Logo" xmlns="http://www.w3.org/2000/svg"
	 x="0px" y="0px" viewBox="0 0 140 50" style="enable-background:new 0 0 140 50;" xml:space="preserve">
<style type="text/css">
	.st0{fill:#D63600;}
	.st1{fill:#DF6238;}
	.st2{fill:#FFFFFF;}
</style>
	<desc>For more information see: http://commons.wikimedia.org/wiki/File:The_Pirate_Bay_logo.svg</desc>
	<polygon class="st0" points="94,5.5 101.3,5.5 104.8,17.2 108.5,5.5 115.5,5.5 110,24.4 116.1,44.3 108.3,44.3 104.7,32.6
	101.2,44.3 93.1,44.3 99.9,24.4 "/>
	<path class="st1" d="M97.8,30.4c0,0,6.9-1,13.3-9.9l4.4-15l-7,0L104.8,17l-3.5-11.6H94l5.8,18.9L97.8,30.4z"/>
	<g>
	<path class="st2" d="M28.2,44.2V11c-0.6,0.4-1.4,0.8-2.2,1.2c-0.9,0.4-1.5,0.6-2.1,0.8V9.8c0.9-0.3,1.9-0.9,2.9-1.6
		c1-0.7,1.9-1.6,2.5-2.6h2.3v38.7H28.2z"/>
</g>
	<g>
	<path class="st2" d="M36.7,35.5v-0.6h3.2c0,1.5,0.2,2.8,0.4,3.7c0.2,1,0.6,1.7,1.1,2.3c0.5,0.5,1.1,0.9,1.7,1.1
		c0.6,0.2,1.4,0.3,2.4,0.3c0.9,0,1.6-0.1,2.2-0.4c0.6-0.2,1.1-0.7,1.6-1.3c0.5-0.6,0.8-1.4,1-2.5c0.2-1.1,0.3-2.4,0.3-4.1
		c0-1.3-0.1-2.4-0.3-3.4c-0.2-1-0.5-1.9-0.9-2.7s-1-1.4-1.8-1.9c-0.8-0.5-1.7-0.7-2.8-0.8v-2.9c2.2-0.1,3.7-0.7,4.5-1.8
		c0.8-1.1,1.3-3.1,1.3-5.8c0-2.5-0.4-4.3-1.3-5.3c-0.9-1-2.2-1.6-3.9-1.6c-1.8,0-3.1,0.6-4.1,1.8c-1,1.2-1.5,3.1-1.6,5.7h-3.2v-0.6
		c0-1.3,0.2-2.5,0.5-3.6c0.3-1.1,0.8-2.1,1.5-3.1c0.7-0.9,1.6-1.7,2.8-2.2C42.6,5.3,44,5,45.7,5c1.2,0,2.3,0.2,3.3,0.5
		c1,0.4,1.8,0.8,2.4,1.4C52,7.6,52.6,8.3,53,9.1c0.4,0.8,0.7,1.7,0.9,2.6c0.2,0.9,0.3,1.9,0.3,2.9c0,2.5-0.5,4.5-1.5,6.1
		c-1,1.6-2.3,2.6-3.8,3c3.5,1.4,5.3,4.8,5.3,10.1c0,7.4-3,11-9,11c-1.2,0-2.3-0.2-3.3-0.5c-1-0.4-1.8-0.8-2.4-1.4
		c-0.6-0.6-1.2-1.3-1.6-2.1c-0.4-0.8-0.7-1.7-0.9-2.6C36.8,37.4,36.7,36.5,36.7,35.5z"/>
</g>
	<g>
	<path class="st2" d="M58,35.6V35h3.2c0,1.5,0.2,2.8,0.4,3.8c0.3,1,0.6,1.7,1.2,2.3c0.5,0.5,1.1,0.9,1.7,1.1
		c0.6,0.2,1.5,0.3,2.4,0.3c0.9,0,1.6-0.1,2.2-0.4c0.6-0.2,1.2-0.7,1.6-1.3c0.5-0.6,0.8-1.5,1.1-2.6c0.2-1.1,0.3-2.5,0.3-4.1
		c0-1.3-0.1-2.4-0.3-3.4c-0.2-1-0.5-1.9-0.9-2.7c-0.4-0.8-1-1.4-1.8-1.9c-0.8-0.5-1.7-0.7-2.8-0.8v-2.9c2.2-0.1,3.7-0.7,4.6-1.9
		c0.9-1.1,1.3-3.1,1.3-5.9c0-2.5-0.4-4.3-1.3-5.4c-0.9-1.1-2.2-1.6-4-1.6c-1.8,0-3.2,0.6-4.1,1.8c-1,1.2-1.5,3.1-1.6,5.8h-3.3v-0.6
		c0-1.3,0.2-2.5,0.5-3.6s0.8-2.2,1.5-3.1c0.7-0.9,1.6-1.7,2.8-2.2C64,5.1,65.4,4.8,67,4.8c1.2,0,2.3,0.2,3.3,0.5
		c1,0.4,1.8,0.8,2.5,1.4C73.5,7.4,74,8.1,74.5,9c0.4,0.8,0.8,1.7,0.9,2.7c0.2,0.9,0.3,1.9,0.3,3c0,2.5-0.5,4.6-1.5,6.2
		c-1,1.6-2.3,2.6-3.9,3.1c3.6,1.4,5.4,4.8,5.4,10.2c0,7.4-3,11.2-9.1,11.2c-1.2,0-2.4-0.2-3.4-0.5c-1-0.4-1.8-0.8-2.5-1.4
		c-0.7-0.6-1.2-1.3-1.6-2.2c-0.4-0.8-0.7-1.7-0.9-2.6C58.1,37.6,58,36.6,58,35.6z"/>
</g>
	<g>
	<path class="st2"
		  d="M81.4,44.3l7.4-36.6H77.9V5.4h14.6v1.7c-1.1,5.8-2.4,12-3.8,18.8c-1.4,6.7-2.6,12.8-3.7,18.4H81.4z"/>
</g>
</svg>
