<?xml version="1.0" encoding="utf-8"?>
<!-- Generator: Adobe Illustrator 26.0.1, SVG Export Plug-In . SVG Version: 6.00 Build 0)  -->
<svg version="1.1"
     id="Layer_1"
     xmlns="http://www.w3.org/2000/svg" x="0px" y="0px" viewBox="0 0 120.9 38"
     style="enable-background:new 0 0 120.9 38;" xml:space="preserve">
<style type="text/css">
	.st0{fill:#6AC045;}
	.st1{font-family:'Arial-BoldItalicMT';}
	.st2{font-size:17.5px;}
</style>
<text transform="matrix(1 0 0 1 87.687 30.5)" class="st0 st1 st2">.MX</text>
<g>
	<ellipse transform="matrix(0.7071 -0.7071 0.7071 0.7071 -10.7696 25.324)" class="st0" cx="25.2" cy="25.7" rx="5" ry="5"/>
	<circle class="st0" cx="12.1" cy="22.2" r="5"/>
	<circle class="st0" cx="14.2" cy="9.3" r="5"/>
	<circle class="st0" cx="20.2" cy="17.2" r="1.9"/>
	<path class="st0" d="M38.3,30.6l5.7-0.9l2.1-10L53.8,9h8.5l-4,20.2l5.7,0.4l4-20.6h5.9c0.5-2.7,4.2-4.9,4.2-4.9H57.5l0,0h-6.8
		L44,14.3L41.2,4.1h-6l5.1,15.7L38.3,30.6z"/>
	<path class="st0" d="M84.5,15c-2.2-1.3-3.8-2.2-3.8-3.7c0-1.5,1.4-2.8,4-2.8c2.2,0,4.1,0.7,4.9,1.2L91.4,5c-1.1-0.6-3-1.3-6.2-1.3
		c-5.8,0-10.4,3.3-10.4,8.6c0,3.5,2.7,5.5,5.5,7c2.4,1.3,3.6,2.2,3.6,3.7c0,2.1-2,3.1-4.2,3.1c-2.4,0-4.7-0.7-6.2-1.7l-1.9,4.6
		c1.3,0.9,3.9,1.9,7.6,1.9c5.9,0,10.8-3,10.8-8.9C89.8,18.9,87.7,16.7,84.5,15z"/>
	<path class="st0" d="M82.9,35.3c0,0-26.6-8.4-51.3-1.1c0,0,0,0,0,0c4.6-3.3,7.7-8.6,8.2-14.6C38.1,28.4,30.4,35,21.2,35
		C10.8,35,2.4,26.6,2.4,16.2C2.4,9.3,6.1,3.3,11.7,0C4.8,3.1,0,10.1,0,18.1C0,29.1,8.9,38,19.9,38c0.8,0,1.5-0.1,2.3-0.1
		c0,0,0,0,0,0c1.1,0.1,30.6-6.9,59.6,0.1c0,0-16.9-6.1-37.8-4.3C44,33.7,56.2,30.6,82.9,35.3z"/>
</g>
</svg>
