<svg id="Layer_1" data-name="Layer 1" xmlns="http://www.w3.org/2000/svg" viewBox="0 0 100 100">
    <defs>
        <style>
            .cls-1{fill:none;}.cls-2{clip-path:url(#clip-path);}.cls-3{fill:#72b4f5;}.cls-10,.cls-11,.cls-12,.cls-13,.cls-14,.cls-15,.cls-16,.cls-17,.cls-18,.cls-19,.cls-20,.cls-21,.cls-22,.cls-23,.cls-24,.cls-25,.cls-26,.cls-27,.cls-28,.cls-29,.cls-3,.cls-30,.cls-31,.cls-32,.cls-33,.cls-34,.cls-35,.cls-36,.cls-37,.cls-38,.cls-39,.cls-4,.cls-40,.cls-41,.cls-42,.cls-43,.cls-44,.cls-45,.cls-46,.cls-47,.cls-48,.cls-49,.cls-5,.cls-50,.cls-51,.cls-52,.cls-53,.cls-54,.cls-55,.cls-56,.cls-57,.cls-58,.cls-59,.cls-6,.cls-60,.cls-61,.cls-62,.cls-63,.cls-64,.cls-65,.cls-66,.cls-67,.cls-68,.cls-69,.cls-7,.cls-70,.cls-71,.cls-72,.cls-74,.cls-75,.cls-8,.cls-9{fill-rule:evenodd;}.cls-4{fill:#71b3f4;}.cls-5{fill:#70b2f3;}.cls-6{fill:#6fb1f3;}.cls-7{fill:#6eb0f2;}.cls-8{fill:#6eaff1;}.cls-9{fill:#6daef0;}.cls-10{fill:#6cadf0;}.cls-11{fill:#6bacef;}.cls-12{fill:#6aabee;}.cls-13{fill:#69aaed;}.cls-14{fill:#68a9ec;}.cls-15{fill:#67a8ec;}.cls-16{fill:#67a7eb;}.cls-17{fill:#66a6ea;}.cls-18{fill:#65a5e9;}.cls-19{fill:#64a4e8;}.cls-20{fill:#63a3e8;}.cls-21{fill:#62a2e7;}.cls-22{fill:#61a1e6;}.cls-23{fill:#60a0e5;}.cls-24{fill:#5f9fe5;}.cls-25{fill:#5f9ee4;}.cls-26{fill:#5e9de3;}.cls-27{fill:#5d9ce2;}.cls-28{fill:#5c9be1;}.cls-29{fill:#5b9ae1;}.cls-30{fill:#5a99e0;}.cls-31{fill:#5998df;}.cls-32{fill:#5897de;}.cls-33{fill:#5796de;}.cls-34{fill:#5795dd;}.cls-35{fill:#5694dc;}.cls-36{fill:#5593db;}.cls-37{fill:#5492da;}.cls-38{fill:#5390da;}.cls-39{fill:#528fd9;}.cls-40{fill:#518ed8;}.cls-41{fill:#508dd7;}.cls-42{fill:#508cd6;}.cls-43{fill:#4f8bd6;}.cls-44{fill:#4e8ad5;}.cls-45{fill:#4d89d4;}.cls-46{fill:#4c88d3;}.cls-47{fill:#4b87d3;}.cls-48{fill:#4a86d2;}.cls-49{fill:#4985d1;}.cls-50{fill:#4884d0;}.cls-51{fill:#4883cf;}.cls-52{fill:#4782cf;}.cls-53{fill:#4681ce;}.cls-54{fill:#4580cd;}.cls-55{fill:#447fcc;}.cls-56{fill:#437ecc;}.cls-57{fill:#427dcb;}.cls-58{fill:#417cca;}.cls-59{fill:#407bc9;}.cls-60{fill:#407ac8;}.cls-61{fill:#3f79c8;}.cls-62{fill:#3e78c7;}.cls-63{fill:#3d77c6;}.cls-64{fill:#3c76c5;}.cls-65{fill:#3b75c4;}.cls-66{fill:#3a74c4;}.cls-67{fill:#3973c3;}.cls-68{fill:#3972c2;}.cls-69{fill:#3871c1;}.cls-70{fill:#3770c1;}.cls-71{fill:#366fc0;}.cls-72{fill:#356ebf;}.cls-73{fill:#daefff;}.cls-74{fill:#fff;}.cls-75{fill:#c8e8ff;}
        </style>
        <clipPath id="clip-path">
            <circle class="cls-1" cx="50" cy="50" r="48.44"/>
        </clipPath>
    </defs>
    <g class="cls-2">
        <polygon class="cls-3" points="34.51 1.56 1.56 19.73 1.56 1.56 34.51 1.56"/>
        <polygon class="cls-3" points="37.02 1.56 1.56 21.12 1.56 19.73 34.51 1.56 37.02 1.56"/>
        <polygon class="cls-4" points="39.54 1.56 1.56 22.51 1.56 21.12 37.02 1.56 39.54 1.56"/>
        <polygon class="cls-5" points="42.05 1.56 1.56 23.89 1.56 22.51 39.54 1.56 42.05 1.56"/>
        <polygon class="cls-6" points="44.56 1.56 1.56 25.28 1.56 23.89 42.05 1.56 44.56 1.56"/>
        <polygon class="cls-7" points="47.08 1.56 1.56 26.67 1.56 25.28 44.56 1.56 47.08 1.56"/>
        <polygon class="cls-8" points="49.59 1.56 1.56 28.05 1.56 26.67 47.08 1.56 49.59 1.56"/>
        <polygon class="cls-9" points="52.11 1.56 1.56 29.44 1.56 28.05 49.59 1.56 52.11 1.56"/>
        <polygon class="cls-10" points="54.62 1.56 1.56 30.82 1.56 29.44 52.11 1.56 54.62 1.56"/>
        <polygon class="cls-11" points="57.13 1.56 1.56 32.21 1.56 30.82 54.62 1.56 57.13 1.56"/>
        <polygon class="cls-12" points="59.65 1.56 1.56 33.6 1.56 32.21 57.13 1.56 59.65 1.56"/>
        <polygon class="cls-13" points="62.16 1.56 1.56 34.98 1.56 33.6 59.65 1.56 62.16 1.56"/>
        <polygon class="cls-14" points="64.67 1.56 1.56 36.37 1.56 34.98 62.16 1.56 64.67 1.56"/>
        <polygon class="cls-15" points="67.19 1.56 1.56 37.76 1.56 36.37 64.67 1.56 67.19 1.56"/>
        <polygon class="cls-16" points="69.7 1.56 1.56 39.14 1.56 37.76 67.19 1.56 69.7 1.56"/>
        <polygon class="cls-17" points="72.21 1.56 1.56 40.53 1.56 39.14 69.7 1.56 72.21 1.56"/>
        <polygon class="cls-18" points="74.73 1.56 1.56 41.91 1.56 40.53 72.21 1.56 74.73 1.56"/>
        <polygon class="cls-19" points="77.24 1.56 1.56 43.3 1.56 41.91 74.73 1.56 77.24 1.56"/>
        <polygon class="cls-20" points="79.75 1.56 1.56 44.69 1.56 43.3 77.24 1.56 79.75 1.56"/>
        <polygon class="cls-21" points="82.27 1.56 1.56 46.07 1.56 44.69 79.75 1.56 82.27 1.56"/>
        <polygon class="cls-22" points="84.78 1.56 1.56 47.46 1.56 46.07 82.27 1.56 84.78 1.56"/>
        <polygon class="cls-23" points="87.29 1.56 1.56 48.85 1.56 47.46 84.78 1.56 87.29 1.56"/>
        <polygon class="cls-24" points="89.81 1.56 1.56 50.23 1.56 48.85 87.29 1.56 89.81 1.56"/>
        <polygon class="cls-25" points="92.32 1.56 1.56 51.62 1.56 50.23 89.81 1.56 92.32 1.56"/>
        <polygon class="cls-26" points="94.83 1.56 1.56 53.01 1.56 51.62 92.32 1.56 94.83 1.56"/>
        <polygon class="cls-27" points="97.35 1.56 1.56 54.39 1.56 53.01 94.83 1.56 97.35 1.56"/>
        <polygon class="cls-28" points="98.44 2.35 1.56 55.78 1.56 54.39 97.35 1.56 98.44 1.56 98.44 2.35"/>
        <polygon class="cls-29" points="98.44 3.73 1.56 57.16 1.56 55.78 98.44 2.35 98.44 3.73"/>
        <polygon class="cls-30" points="98.44 5.12 1.56 58.55 1.56 57.16 98.44 3.73 98.44 5.12"/>
        <polygon class="cls-31" points="98.44 6.51 1.56 59.94 1.56 58.55 98.44 5.12 98.44 6.51"/>
        <polygon class="cls-32" points="98.44 7.89 1.56 61.32 1.56 59.94 98.44 6.51 98.44 7.89"/>
        <polygon class="cls-33" points="98.44 9.28 1.56 62.71 1.56 61.32 98.44 7.89 98.44 9.28"/>
        <polygon class="cls-34" points="98.44 10.66 1.56 64.1 1.56 62.71 98.44 9.28 98.44 10.66"/>
        <polygon class="cls-35" points="98.44 12.05 1.56 65.48 1.56 64.1 98.44 10.66 98.44 12.05"/>
        <polygon class="cls-36" points="98.44 13.44 1.56 66.87 1.56 65.48 98.44 12.05 98.44 13.44"/>
        <polygon class="cls-37" points="98.44 14.82 1.56 68.25 1.56 66.87 98.44 13.44 98.44 14.82"/>
        <polygon class="cls-38" points="98.44 16.21 1.56 69.64 1.56 68.25 98.44 14.82 98.44 16.21"/>
        <polygon class="cls-39" points="98.44 17.6 1.56 71.03 1.56 69.64 98.44 16.21 98.44 17.6"/>
        <polygon class="cls-40" points="98.44 18.98 1.56 72.41 1.56 71.03 98.44 17.6 98.44 18.98"/>
        <polygon class="cls-41" points="98.44 20.37 1.56 73.8 1.56 72.41 98.44 18.98 98.44 20.37"/>
        <polygon class="cls-42" points="98.44 21.75 1.56 75.19 1.56 73.8 98.44 20.37 98.44 21.75"/>
        <polygon class="cls-43" points="98.44 23.14 1.56 76.57 1.56 75.19 98.44 21.75 98.44 23.14"/>
        <polygon class="cls-44" points="98.44 24.53 1.56 77.96 1.56 76.57 98.44 23.14 98.44 24.53"/>
        <polygon class="cls-45" points="98.44 25.91 1.56 79.34 1.56 77.96 98.44 24.53 98.44 25.91"/>
        <polygon class="cls-46" points="98.44 27.3 1.56 80.73 1.56 79.34 98.44 25.91 98.44 27.3"/>
        <polygon class="cls-47" points="98.44 28.69 1.56 82.12 1.56 80.73 98.44 27.3 98.44 28.69"/>
        <polygon class="cls-48" points="98.44 30.07 1.56 83.5 1.56 82.12 98.44 28.69 98.44 30.07"/>
        <polygon class="cls-49" points="98.44 31.46 1.56 84.89 1.56 83.5 98.44 30.07 98.44 31.46"/>
        <polygon class="cls-50" points="98.44 32.85 1.56 86.28 1.56 84.89 98.44 31.46 98.44 32.85"/>
        <polygon class="cls-51" points="98.44 34.23 1.56 87.66 1.56 86.28 98.44 32.85 98.44 34.23"/>
        <polygon class="cls-52" points="98.44 35.62 1.56 89.05 1.56 87.66 98.44 34.23 98.44 35.62"/>
        <polygon class="cls-53" points="98.44 37 1.56 90.44 1.56 89.05 98.44 35.62 98.44 37"/>
        <polygon class="cls-54" points="98.44 38.39 1.56 91.82 1.56 90.44 98.44 37 98.44 38.39"/>
        <polygon class="cls-55" points="98.44 39.78 1.56 93.21 1.56 91.82 98.44 38.39 98.44 39.78"/>
        <polygon class="cls-56" points="98.44 41.16 1.56 94.59 1.56 93.21 98.44 39.78 98.44 41.16"/>
        <polygon class="cls-57" points="98.44 42.55 1.56 95.98 1.56 94.59 98.44 41.16 98.44 42.55"/>
        <polygon class="cls-58" points="98.44 43.94 1.56 97.37 1.56 95.98 98.44 42.55 98.44 43.94"/>
        <polygon class="cls-59" points="98.44 45.32 2.13 98.44 1.56 98.44 1.56 97.37 98.44 43.94 98.44 45.32"/>
        <polygon class="cls-60" points="98.44 46.71 4.65 98.44 2.13 98.44 98.44 45.32 98.44 46.71"/>
        <polygon class="cls-61" points="98.44 48.09 7.16 98.44 4.65 98.44 98.44 46.71 98.44 48.09"/>
        <polygon class="cls-62" points="98.44 49.48 9.67 98.44 7.16 98.44 98.44 48.09 98.44 49.48"/>
        <polygon class="cls-63" points="98.44 50.87 12.19 98.44 9.67 98.44 98.44 49.48 98.44 50.87"/>
        <polygon class="cls-64" points="98.44 52.25 14.7 98.44 12.19 98.44 98.44 50.87 98.44 52.25"/>
        <polygon class="cls-65" points="98.44 53.64 17.21 98.44 14.7 98.44 98.44 52.25 98.44 53.64"/>
        <polygon class="cls-66" points="98.44 55.03 19.73 98.44 17.21 98.44 98.44 53.64 98.44 55.03"/>
        <polygon class="cls-67" points="98.44 56.41 22.24 98.44 19.73 98.44 98.44 55.03 98.44 56.41"/>
        <polygon class="cls-68" points="98.44 57.8 24.75 98.44 22.24 98.44 98.44 56.41 98.44 57.8"/>
        <polygon class="cls-69" points="98.44 59.19 27.27 98.44 24.75 98.44 98.44 57.8 98.44 59.19"/>
        <polygon class="cls-70" points="98.44 60.57 29.78 98.44 27.27 98.44 98.44 59.19 98.44 60.57"/>
        <polygon class="cls-71" points="98.44 61.96 32.3 98.44 29.78 98.44 98.44 60.57 98.44 61.96"/>
        <polygon class="cls-72" points="98.44 63.34 34.81 98.44 32.3 98.44 98.44 61.96 98.44 63.34"/>
        <polygon class="cls-72" points="34.81 98.44 98.44 63.34 98.44 98.44 34.81 98.44"/>
    </g>
    <path class="cls-73"
          d="M50,100A50,50,0,0,1,30.54,3.93,50,50,0,0,1,69.46,96.07,49.61,49.61,0,0,1,50,100ZM50,3.12A46.89,46.89,0,0,0,31.75,93.19,46.89,46.89,0,0,0,68.25,6.81,46.5,46.5,0,0,0,50,3.12Z"/>
    <path class="cls-74"
          d="M69.62,32.46q6.51,0,10.09,4.46t3.62,12.57q0,8.13-3.65,12.65a12.18,12.18,0,0,1-10.06,4.5,14.64,14.64,0,0,1-5.91-1.18,11.2,11.2,0,0,1-4.46-3.68h-.36l-1,4.25H54.25V19.14h5V30.53q0,3.82-.24,6.87h.24q3.49-4.93,10.37-4.94Zm-.72,4.19q-5.13,0-7.39,3t-2.26,9.89q0,7,2.32,10t7.45,3a7.74,7.74,0,0,0,6.87-3.35c1.5-2.25,2.26-5.47,2.26-9.67s-.76-7.51-2.26-9.62-3.84-3.16-7-3.16Z"/>
    <path class="cls-75"
          d="M31,62.45q5,0,7.3-2.69c1.52-1.78,2.34-4.8,2.44-9V49.61q0-6.93-2.35-10t-7.45-3A7.69,7.69,0,0,0,24.17,40c-1.54,2.28-2.32,5.49-2.32,9.65s.77,7.33,2.29,9.52A7.87,7.87,0,0,0,31,62.45Zm-.75,4.19a12,12,0,0,1-10-4.5q-3.6-4.48-3.59-12.53T20.29,37A12.13,12.13,0,0,1,30.35,32.4a12,12,0,0,1,10.43,5.12h.27L41.77,33h3.95V80.86h-5V66.73a33.93,33.93,0,0,1,.33-5.13h-.39q-3.46,5-10.43,5Z"/>
</svg>
