<?xml version="1.0" encoding="utf-8"?>
<!-- Generator: Adobe Illustrator 26.0.1, SVG Export Plug-In . SVG Version: 6.00 Build 0)  -->
<svg version="1.1" id="Layer_1" xmlns="http://www.w3.org/2000/svg" x="0px" y="0px"
	 viewBox="0 0 140 50" style="enable-background:new 0 0 140 50;" xml:space="preserve">
<style type="text/css">
	.st0{fill:#3860BB;}
	.st1{fill-rule:evenodd;clip-rule:evenodd;fill:#FFFFFF;}
</style>
	<g>
	<path class="st0" d="M35,37.2h-7.5l-6.8-9h-2.2v9h-6.1V12.8h9.8c1.4,0,2.5,0.1,3.5,0.3c1,0.2,1.9,0.5,2.8,1
		c0.9,0.6,1.6,1.3,2.1,2.1c0.5,0.9,0.8,1.9,0.8,3.3c0,1.9-0.4,3.4-1.3,4.6c-0.8,1.2-2,2.1-3.4,2.8L35,37.2z M25.1,20.3
		c0-0.6-0.1-1.1-0.4-1.6c-0.2-0.4-0.6-0.8-1.2-1c-0.4-0.2-0.8-0.3-1.3-0.3c-0.5,0-1.1-0.1-1.8-0.1h-2.1v6.6h1.8c0.9,0,1.6,0,2.2-0.1
		c0.6-0.1,1.1-0.3,1.5-0.7c0.4-0.3,0.7-0.7,0.9-1.1C25,21.5,25.1,20.9,25.1,20.3L25.1,20.3z"/>
		<path class="st0" d="M34.1,37.2l8.2-24.4h6.7l8.2,24.4H51l-1.5-5h-7.7l-1.5,5H34.1z M48.2,27.8l-2.5-8.1l-2.5,8.1H48.2z M82.3,37.2
		h-7.5l-6.8-9h-2.2v9h-6.1V12.8h9.8c1.4,0,2.5,0.1,3.5,0.3c1,0.2,1.9,0.5,2.8,1c0.9,0.6,1.6,1.3,2.1,2.1c0.5,0.9,0.8,1.9,0.8,3.3
		c0,1.9-0.4,3.4-1.3,4.6c-0.8,1.2-2,2.1-3.4,2.8L82.3,37.2z M72.5,20.3c0-0.6-0.1-1.1-0.4-1.6c-0.2-0.4-0.6-0.8-1.2-1
		c-0.4-0.2-0.8-0.3-1.3-0.3c-0.5,0-1.1-0.1-1.8-0.1h-2.1v6.6h1.8c0.9,0,1.6,0,2.2-0.1c0.6-0.1,1.1-0.3,1.5-0.7
		c0.4-0.3,0.7-0.7,0.9-1.1C72.4,21.5,72.5,20.9,72.5,20.3L72.5,20.3z M103.7,29.7c0,1.2-0.2,2.3-0.7,3.2c-0.5,0.9-1.1,1.7-1.9,2.3
		c-0.9,0.7-1.9,1.2-3,1.5c-1.1,0.3-2.5,0.5-4.2,0.5h-9.8V12.8h8.6c1.8,0,3.1,0.1,4.1,0.2c0.9,0.1,1.8,0.4,2.6,0.9
		c0.9,0.5,1.5,1.1,2,1.9c0.4,0.8,0.7,1.7,0.7,2.7c0,1.2-0.3,2.3-0.9,3.2c-0.6,0.9-1.4,1.6-2.5,2.1v0.1c1.5,0.3,2.7,1,3.6,2
		C103.3,26.7,103.7,28.1,103.7,29.7L103.7,29.7z M95.8,19.7c0-0.4-0.1-0.8-0.3-1.2c-0.2-0.4-0.5-0.7-0.9-0.9
		c-0.4-0.2-0.9-0.3-1.4-0.3c-0.5,0-1.4,0-2.5,0h-0.4v5.2H91c1,0,1.8,0,2.2,0c0.4,0,0.9-0.1,1.3-0.3c0.5-0.2,0.8-0.5,1-1
		C95.8,20.7,95.8,20.2,95.8,19.7L95.8,19.7z M97.4,29.6c0-0.8-0.2-1.3-0.5-1.8c-0.3-0.4-0.8-0.7-1.4-1c-0.4-0.1-0.9-0.2-1.5-0.2
		c-0.6,0-1.5,0-2.6,0h-1.1v6.1h0.3c1.6,0,2.7,0,3.3,0c0.6,0,1.2-0.2,1.9-0.4c0.6-0.2,1-0.6,1.2-1C97.3,30.7,97.4,30.2,97.4,29.6
		L97.4,29.6z M127.6,35.8c-1.1,0.4-2.5,0.9-4.2,1.3c-1.7,0.4-3.4,0.6-5.1,0.6c-3.8,0-6.9-1.1-9.2-3.3c-2.3-2.2-3.4-5.4-3.4-9.4
		c0-3.8,1.1-6.9,3.4-9.2c2.3-2.3,5.4-3.5,9.4-3.5c2,0,3.7,0.2,5,0.6c1.3,0.4,2.6,0.9,4,1.6v5.7H127c-0.4-0.3-0.8-0.6-1.3-1
		c-0.5-0.4-1.1-0.8-1.6-1.1c-0.6-0.3-1.3-0.7-2.1-0.9c-0.8-0.3-1.6-0.4-2.5-0.4c-1,0-2,0.2-2.9,0.5c-0.9,0.3-1.6,0.8-2.3,1.5
		c-0.6,0.7-1.2,1.5-1.5,2.5c-0.4,1-0.6,2.2-0.6,3.5c0,2.9,0.7,5,2.1,6.3c1.4,1.4,3.4,2,5.9,2c0.2,0,0.5,0,0.8,0c0.3,0,0.5,0,0.8,0
		v-4.8H117v-4.6h10.7L127.6,35.8z"/>
</g>
	<path class="st1" d="M40.3,37.2l1.5-5h7.7l1.5,5h6.3l-8.2-24.4h-6.7l-8,23.7l-7.7-9.7c1-0.5,1.8-1,2.5-1.7c0.3-0.3,0.6-0.7,0.9-1
	c0.8-1.2,1.3-2.7,1.3-4.6c0-1.3-0.3-2.4-0.8-3.3c-0.5-0.9-1.2-1.6-2.1-2.1c-0.9-0.5-1.8-0.9-2.8-1c-1-0.2-2.2-0.3-3.5-0.3h-9.8v24.4
	h6.1v-9h2.2l6.8,9H40.3z M21.5,34.3l3.6,4.7c0.6,0.8,1.5,1.2,2.4,1.2h12.8c1.3,0,2.5-0.9,2.9-2.1l0.9-2.8h3.2l0.9,2.8
	c0.4,1.3,1.6,2.1,2.9,2.1h6.3c0.4,0,0.8-0.1,1.2-0.3c0.4,0.2,0.8,0.3,1.2,0.3h6.1c1.7,0,3-1.4,3-3v-2.9l3.6,4.7
	c0.6,0.8,1.5,1.2,2.4,1.2h7.5c0.3,0,0.6,0,0.9-0.1c0.3,0.1,0.6,0.1,0.9,0.1h9.8c1.8,0,3.5-0.2,5-0.6c1.5-0.4,2.9-1.1,4.1-2.1
	c1-0.8,1.9-1.8,2.5-2.9c0.5,0.7,1,1.3,1.6,1.9l0,0c3,2.9,6.8,4.2,11.3,4.2c1.9,0,3.8-0.2,5.8-0.7c1.8-0.4,3.3-0.9,4.6-1.4
	c1.1-0.5,1.9-1.6,1.9-2.8v-12c0-0.7-0.2-1.3-0.6-1.9c0.4-0.5,0.5-1.1,0.5-1.7v-5.7c0-1.2-0.7-2.2-1.7-2.7c-1.5-0.7-3-1.3-4.4-1.8
	c-1.7-0.5-3.7-0.7-5.9-0.7c-4.6,0-8.5,1.4-11.5,4.4l0,0c-0.8,0.8-1.6,1.8-2.2,2.8c-0.2-0.8-0.4-1.5-0.8-2.2
	c-0.7-1.4-1.8-2.4-3.2-3.1c-1.1-0.6-2.3-1-3.6-1.2c-1.2-0.2-2.7-0.2-4.5-0.2h-8.6c-1.7,0-3,1.4-3,3v3c-0.2-0.4-0.3-0.8-0.6-1.1
	c-0.8-1.3-1.8-2.3-3.1-3.1l0,0l0,0c-1.2-0.8-2.5-1.2-3.9-1.5c-1.2-0.2-2.6-0.3-4-0.3h-9.8c-1.7,0-3,1.4-3,3V26L52,11.8
	c-0.4-1.2-1.6-2.1-2.9-2.1h-6.7c-1.3,0-2.4,0.8-2.9,2.1l-6.2,18.4l-2.2-2.8c0.5-0.5,1-1,1.5-1.6l0,0c1.3-1.8,1.8-4,1.8-6.3
	c0-1.7-0.3-3.4-1.2-4.8c-0.8-1.3-1.8-2.3-3.1-3.1c0,0,0,0,0,0c-1.2-0.8-2.5-1.2-3.9-1.5c-1.2-0.2-2.6-0.3-4-0.3h-9.8
	c-1.7,0-3,1.4-3,3v24.4c0,1.7,1.4,3,3,3h6.1c1.7,0,3-1.4,3-3L21.5,34.3z M59.8,37.2h6.1v-9h2.2l6.8,9h7.5l-8.2-10.4
	c1-0.5,1.8-1,2.5-1.7c0.3-0.3,0.6-0.7,0.9-1c0.8-1.2,1.3-2.7,1.3-4.6c0-1.3-0.3-2.4-0.8-3.3c-0.5-0.9-1.2-1.6-2.1-2.1
	c-0.9-0.5-1.8-0.9-2.8-1c-1-0.2-2.2-0.3-3.5-0.3h-9.8V37.2z M72.2,21.9c0.2-0.4,0.3-1,0.3-1.7c0-0.6-0.1-1.1-0.4-1.6
	c-0.2-0.4-0.6-0.8-1.2-1c-0.4-0.2-0.8-0.3-1.3-0.3c-0.3,0-0.5,0-0.8,0c-0.3,0-0.6,0-1,0h-2.1v6.6h1.8c0.5,0,0.9,0,1.3,0
	c0.3,0,0.6-0.1,0.9-0.1c0.6-0.1,1.1-0.3,1.5-0.7C71.7,22.7,72,22.4,72.2,21.9L72.2,21.9z M69.3,20.7c0,0,0.1,0,0.1,0l0,0
	c0-0.1,0-0.2,0-0.3c0,0,0,0-0.1,0c-0.2,0-0.3,0-0.5,0v0.5C69,20.8,69.2,20.7,69.3,20.7z M78.5,27.5l2.6,3.3v-7.3
	c-0.3,0.8-0.7,1.6-1.2,2.3l0,0C79.5,26.4,79,27,78.5,27.5L78.5,27.5z M84.2,37.2h9.8c1.7,0,3.1-0.2,4.2-0.5c1.1-0.3,2.1-0.8,3-1.5
	c0.8-0.6,1.4-1.4,1.9-2.3c0.3-0.6,0.5-1.3,0.6-2.1c0-0.4,0.1-0.7,0.1-1.1c0-1.3-0.3-2.5-0.9-3.3c-0.1-0.2-0.3-0.4-0.5-0.6
	c-0.1-0.2-0.3-0.3-0.5-0.5c-0.8-0.7-1.9-1.2-3.1-1.5c0,0,0,0-0.1,0v-0.1l0,0c1-0.4,1.8-1.1,2.4-2c0-0.1,0.1-0.1,0.1-0.2
	c0.5-0.9,0.8-1.9,0.8-3c0-1-0.2-1.9-0.7-2.7c-0.4-0.8-1.1-1.4-2-1.9c-0.8-0.4-1.7-0.7-2.6-0.9c-0.9-0.1-2.3-0.2-4.1-0.2h-8.6V37.2z
	 M93.2,17.3c0,0,0.1,0,0.1,0c0.5,0,0.9,0.1,1.3,0.3c0.4,0.2,0.7,0.5,0.9,0.9c0.2,0.4,0.3,0.8,0.3,1.2c0,0.5-0.1,1-0.3,1.4
	c-0.2,0.4-0.5,0.7-1,1c-0.4,0.2-0.8,0.3-1.3,0.3c0,0,0,0-0.1,0c-0.4,0-1.1,0-2.2,0h-0.8v-5.2h0.4C91.8,17.3,92.6,17.3,93.2,17.3
	L93.2,17.3z M97,31.2c0.3-0.5,0.4-1,0.4-1.6c0-0.8-0.2-1.3-0.5-1.8c-0.3-0.4-0.8-0.7-1.4-1c-0.4-0.1-0.9-0.2-1.5-0.2
	c-0.2,0-0.5,0-0.7,0c-0.5,0-1.2,0-1.9,0h-1.1v6.1h0.3c1.2,0,2.1,0,2.7,0c0.2,0,0.4,0,0.6,0c0.6,0,1.2-0.2,1.9-0.4
	C96.3,32,96.7,31.7,97,31.2L97,31.2z M93.9,29.7L93.9,29.7c-0.2,0-0.4,0-0.6,0v0c0.2,0,0.4,0,0.5,0C93.8,29.7,93.9,29.7,93.9,29.7z
	 M105.8,25.5c0,1.5,0.3,2.9,0.6,4.2c0.1,0.3,0.2,0.5,0.3,0.8c0.6,1.5,1.4,2.8,2.5,3.9c2.3,2.2,5.3,3.3,9.2,3.3
	c1.7,0,3.3-0.2,5.1-0.6c1.7-0.4,3.1-0.8,4.2-1.3v-12H117v4.6h4.7v4.8c-0.2,0-0.5,0-0.8,0c-0.3,0-0.6,0-0.8,0c-0.4,0-0.9,0-1.3-0.1
	c-0.1,0-0.1,0-0.2,0c-1.8-0.2-3.3-0.9-4.4-1.9c-1.4-1.4-2.1-3.5-2.1-6.3c0-1.3,0.2-2.5,0.6-3.5c0.4-1,0.9-1.8,1.5-2.5
	c0.7-0.7,1.4-1.2,2.3-1.5c0.9-0.3,1.8-0.5,2.9-0.5c0.9,0,1.7,0.1,2.5,0.4c0.8,0.3,1.5,0.6,2.1,0.9c0.1,0.1,0.3,0.2,0.4,0.2
	c0.4,0.3,0.8,0.5,1.2,0.8c0.4,0.3,0.9,0.6,1.3,1h0.6v-5.7c-1.4-0.7-2.7-1.2-4-1.6c-1.3-0.4-2.9-0.6-5-0.6c-4,0-7.1,1.2-9.4,3.5
	c-2.3,2.3-3.4,5.4-3.4,9.2C105.8,25.1,105.8,25.3,105.8,25.5L105.8,25.5z M116.6,20.8c0.1,0,0.2,0,0.3,0h5.6
	c-0.4-0.2-0.9-0.4-1.5-0.6l0,0c-0.5-0.2-1-0.2-1.6-0.2c-0.7,0-1.3,0.1-1.8,0.3C117.3,20.3,116.9,20.5,116.6,20.8L116.6,20.8z
	 M24.8,21.9c0.2-0.4,0.3-1,0.3-1.7c0-0.6-0.1-1.1-0.4-1.6c-0.2-0.4-0.6-0.8-1.2-1c-0.4-0.2-0.8-0.3-1.3-0.3c-0.3,0-0.5,0-0.8,0
	c-0.3,0-0.6,0-1,0h-2.1v6.6h1.8c0.5,0,0.9,0,1.3,0c0.3,0,0.6-0.1,0.9-0.1c0.6-0.1,1.1-0.3,1.5-0.7C24.3,22.7,24.6,22.4,24.8,21.9
	L24.8,21.9z M21.9,20.7c0,0,0.1,0,0.1,0l0,0c0-0.1,0-0.2,0-0.3c0,0,0,0-0.1,0c-0.2,0-0.3,0-0.5,0v0.5C21.6,20.8,21.7,20.7,21.9,20.7
	z M45.7,19.7l2.5,8.1h-5L45.7,19.7z"/>
</svg>
