<?xml version="1.0" encoding="utf-8"?>
<!-- Generator: Adobe Illustrator 26.0.1, SVG Export Plug-In . SVG Version: 6.00 Build 0)  -->
<svg version="1.1" id="The_Pirate_Bay_Logo" xmlns="http://www.w3.org/2000/svg"
     x="0px" y="0px" viewBox="0 0 140 50" style="enable-background:new 0 0 140 50;" xml:space="preserve">
<style type="text/css">
	.st0{fill:#906444;}
</style>
<desc>For more information see: http://commons.wikimedia.org/wiki/File:The_Pirate_Bay_logo.svg</desc>
<path id="Logo" class="st0" d="M105.6,15.4c-0.5,0-1,0.1-1.5,0.4c-0.5,0.3-0.8,0.7-1,1.1c-0.2,0.5-0.3,1-0.4,1.7h0.4
	c0.1-0.6,0.2-1,0.5-1.2c0.2-0.2,0.5-0.3,0.8-0.3c0.2,0,0.5,0,0.9,0.1c0.7,0.2,1.3,0.3,1.8,0.3c0.7,0,1.6-0.2,2.6-0.5
	c-1.1,0.7-1.8,1.3-2.2,1.7s-0.7,0.8-0.8,1.3c-0.2,0.5-0.3,1.2-0.3,2.3c-0.4,0-0.8-0.1-1-0.1c-0.7,0-1.4,0.2-1.8,0.6
	c-0.5,0.4-0.8,1-0.8,1.7l0.4,0.1c0.2-0.3,0.3-0.6,0.5-0.7c0.3-0.2,0.7-0.3,1.1-0.3c0.7,0,1.2,0.3,1.5,0.8c0.2,0.3,0.3,0.9,0.3,1.6
	c-0.2,0-0.3,0-0.4,0c-0.7,0-1.3,0.2-1.7,0.6s-0.6,0.9-0.6,1.5c0,0.1,0,0.2,0,0.3l0.4,0c0.1-0.4,0.2-0.7,0.4-0.9
	c0.2-0.2,0.4-0.3,0.7-0.3c0.3,0,0.6,0.1,0.8,0.3c0.2,0.2,0.3,0.5,0.3,0.8c0,0.3-0.1,0.6-0.3,0.9c-0.2,0.3-0.6,0.8-1.3,1.5
	c-0.7,0.7-1.1,1.2-1.3,1.6c-0.2,0.4-0.3,0.7-0.3,1c0,0.3,0.1,0.6,0.3,0.8c0.2,0.2,0.4,0.3,0.6,0.3c0.1,0,0.3-0.1,0.4-0.2
	c0.1-0.1,0.2-0.2,0.2-0.4c0-0.2-0.1-0.4-0.2-0.6c-0.2-0.3-0.2-0.5-0.2-0.6c0-0.4,0.3-0.7,0.8-1.1c0.8-0.5,1.9-0.8,3.2-0.8
	c1.1,0,2.1,0.2,3,0.5c0.6,0.2,1.2,0.5,1.8,0.9c1.9-1.6,4.1-2.5,6.8-2.8v-3.8c0-0.9-0.1-1.5-0.3-1.9c-0.2-0.4-0.5-0.7-1-0.9
	c-0.5-0.2-1.2-0.4-2.2-0.5c1.2-0.9,2-1.7,2.4-2.3c0.4-0.6,0.7-1.3,0.7-1.9c0-0.7-0.3-1.4-0.8-2c-0.4-0.4-1-0.7-1.7-0.9
	c-2.4,0.7-4,1.3-4.7,1.8c-0.7,0.5-1.2,1-1.5,1.6c-0.3,0.6-0.4,1.7-0.4,3.2v3.3c0,1.2-0.2,2.2-0.7,2.8c-0.5,0.6-1.3,1.2-2.7,1.8
	c0.7-0.7,1.1-1.4,1.4-1.9c0.2-0.6,0.3-1.3,0.3-2.3v-4.6c0-1.2,0.3-2.2,0.8-3c0.5-0.7,1.6-1.5,3.2-2.3l-0.2-0.5
	c-0.6,0.3-1.1,0.4-1.5,0.5c-0.4,0.1-0.8,0.1-1.2,0.1c-0.6,0-1.3-0.1-2.2-0.3C106.6,15.5,105.9,15.4,105.6,15.4z M16.5,15.7
	c-0.4,0.6-0.7,0.9-1,1.1c-0.3,0.2-0.6,0.2-1.1,0.2c-0.7,0-2.1-0.2-4.1-0.5c-2-0.3-3.4-0.5-4.1-0.5c-1.1,0-2.1,0.2-3,0.6
	c-0.9,0.4-1.6,1-2.1,1.8c-0.4,0.6-0.7,1.4-1,2.5l0.4,0.2c0.3-0.8,0.6-1.4,0.9-1.9c0.4-0.4,0.8-0.8,1.5-1C3.5,18,4,17.9,4.5,17.9
	L6,18c-0.9,0.6-1.6,1.2-2.1,1.8C3,20.6,2.4,21.5,2,22.5c-0.4,0.9-0.6,1.9-0.6,3c0,1,0.2,1.9,0.6,2.7c0.4,0.8,0.9,1.5,1.4,2.1
	c0.6,0.6,1.2,1,1.9,1.3c1.2,0.5,2.5,0.8,3.9,0.8c1.4,0,2.7-0.3,3.8-0.9c1.1-0.6,2-1.3,2.7-2.3c0.4-0.6,0.8-1.4,1.1-2.4l-0.4-0.2
	c-0.6,1-1.2,1.8-1.9,2.3c-0.7,0.5-1.6,1-2.7,1.3V18.9c0.5,0,1,0.1,1.3,0.1c0.7,0,1.3-0.1,1.8-0.4c0.5-0.2,0.9-0.6,1.2-1
	c0.3-0.4,0.5-1,0.6-1.7L16.5,15.7z M43.1,15.8c-0.6,0-1.2,0.1-1.7,0.3c-0.5,0.2-1,0.6-1.5,1.1l0.3,0.3c0.6-0.4,1.2-0.6,1.7-0.6
	c0.5,0,0.9,0.1,1.3,0.3c0.4,0.2,0.6,0.5,0.8,0.8c0.1,0.3,0.2,0.9,0.2,1.6v0.8l-2.9,1.9c-0.4,0.3-0.9,0.5-1.4,0.8v0.5
	c1,0.3,1.9,0.7,2.5,1.2c0.7,0.5,1.1,1.1,1.4,1.7c0.3,0.6,0.4,1.4,0.4,2.5c-1.1,0.2-2,0.5-2.7,1c-0.7,0.4-1.6,1.2-2.6,2.3l0.4,0.4
	c0.7-0.6,1.5-1,2.2-1.3c0.7-0.3,1.7-0.4,2.8-0.5v4.5h4.2v-4.4c0.7,0.1,1.3,0.2,2,0.3c0.7,0.2,1.5,0.4,2.4,0.8l3.4-3.1v-7.1
	c0-1-0.1-1.8-0.3-2.3c-0.2-0.5-0.6-1.1-1.2-1.7c-0.6-0.6-1.7-1.4-3.3-2.4l-3.1,2v-2h-0.5v2.3L46.5,19c0-0.7-0.1-1.3-0.4-1.7
	c-0.2-0.4-0.6-0.8-1.2-1.1C44.4,16,43.8,15.8,43.1,15.8z M22.6,16.3c-0.5,0.1-1,0.2-1.4,0.4c-0.4,0.2-0.9,0.5-1.3,0.9
	c-0.4-0.3-0.7-0.6-0.9-0.7c-0.2-0.1-0.6-0.3-0.9-0.4l-0.1,0.3c0.5,0.3,0.8,0.6,1,0.9c0.2,0.3,0.2,1,0.2,1.9v10.2l-0.9,0.9l2,1.6
	l2-1.6L21.3,30v-6.2l1.9-1.6c0.4,0.3,0.7,0.5,0.9,0.8c0.1,0.2,0.2,0.6,0.2,1.1v4.7c0,1.7-0.1,2.8-0.2,3.2c-0.2,0.5-0.5,1.1-1.1,1.5
	c-0.6,0.5-1.5,1-3,1.6l0.1,0.4c1.8-0.6,3.2-1.4,4.3-2.2c0.9-0.6,1.5-1.3,1.8-2.1c0.2-0.4,0.3-1.2,0.3-2.1v-5.1
	c0-1.1-0.1-1.8-0.3-2.3c-0.2-0.4-0.7-0.9-1.4-1.4l-3.5,2.7v-3.6c0-0.8,0.1-1.5,0.3-1.8c0.2-0.4,0.6-0.7,1.1-1.1L22.6,16.3z
	 M114.9,16.5c0.8,0.4,1.4,0.7,1.8,1.2c0.4,0.5,0.6,1,0.6,1.6c0,0.8-0.2,1.5-0.7,2.1c-0.5,0.7-1.2,1.3-2.3,1.9v-2.9h-0.5v9.3
	c-0.9-0.3-1.9-0.4-2.9-0.4c-0.6,0-1.2,0-1.9,0.1c1.3-0.8,2.2-1.3,2.6-1.7c0.4-0.4,0.7-0.8,0.9-1.2c0.1-0.4,0.2-1,0.2-1.9v-4.6
	c0-0.8,0-1.4,0.2-1.8c0.1-0.3,0.3-0.7,0.6-0.9C113.6,17.2,114.1,16.9,114.9,16.5z M61.4,16.6L60.9,19h0.5l1.5-2.4H61.4z M49.8,17.5
	c1.2,0.6,2.1,1.1,2.7,1.6c0.6,0.5,1,1,1.2,1.4c0.2,0.4,0.3,1,0.3,1.6c-0.6,0.4-1.1,0.6-1.5,0.8c-0.4,0.1-0.9,0.2-1.3,0.2
	c-0.5,0-0.9-0.1-1.3-0.2c-0.4-0.1-0.9-0.4-1.5-0.8v-3.6L49.8,17.5z M86.8,17.8l-3.1,3.9v0.5h1.1v6.4c0,0.5-0.1,0.9-0.2,1.2
	c-0.1,0.2-0.3,0.4-0.6,0.6v0.2c1.1,0.3,2,0.9,2.8,1.8l2.5-2L89,30.1l-0.7,0.5L87,29.7v-7.5h2.2v-1.3H87l0.1-3.1H86.8z M6.6,18.1
	l0.6,0.1v8.3c0,0.9-0.1,1.4-0.2,1.7c-0.1,0.3-0.4,0.7-1,1.1c-1.7-1.3-2.6-3-2.6-5.1c0-1.2,0.3-2.4,0.9-3.6
	C4.9,19.8,5.6,18.9,6.6,18.1z M9.5,18.5c0.5,0.1,1.2,0.2,1.9,0.3v11.5c-0.6,0.1-1.1,0.1-1.5,0.1c-0.6,0-1.3-0.1-1.9-0.3
	c-0.4-0.1-0.9-0.3-1.5-0.6c1.2-1,2.1-1.7,2.5-2.2c0.2-0.3,0.4-0.5,0.4-0.7c0.1-0.2,0.1-0.7,0.1-1.5V18.5z M47.9,18.8v16.3h-1.3V19.7
	L47.9,18.8z M33,20.4c-1.2,0.6-2,1-2.4,1.2c-0.5,0.2-1,0.4-1.7,0.7v6.4c0,0.7,0,1.2-0.1,1.4c-0.1,0.2-0.2,0.4-0.5,0.6V31
	c0.9,0.2,1.6,0.4,2,0.5c0.5,0.2,1.1,0.5,1.8,0.9l3.6-2.5l-0.2-0.3l-1.7,1.2l-2.6-1v-2l5-3.5L33,20.4z M60.6,20.4l-2,1.6l0.8,0.9v6.2
	c0,0.9,0.1,1.6,0.3,2c0.2,0.4,0.6,0.8,1.2,1.2l2.4-2L63,30c-0.3,0.3-0.5,0.4-0.6,0.5c-0.1,0-0.1,0.1-0.2,0.1c-0.1,0-0.2-0.1-0.3-0.3
	c-0.1-0.2-0.2-0.6-0.2-1.2v-6.1l0.9-0.9L60.6,20.4z M67.1,20.4l-2.3,2l0.3,0.3c0.3-0.3,0.5-0.4,0.7-0.4c0.2,0,0.3,0.1,0.4,0.3
	c0.1,0.2,0.2,0.6,0.2,1.2v4.6c0,0.7-0.1,1.1-0.2,1.4c-0.1,0.2-0.3,0.5-0.6,0.7v0.2c0.5,0.1,0.9,0.3,1.4,0.6c0.4,0.2,0.9,0.6,1.5,1.2
	l2.8-2.3L71,29.7l-1.2,0.9l-1.3-0.9v-6.5l1.1-1l1.4,1.8l1.7-1.5l-1.7-2l-2.5,2.2c0-0.4-0.1-0.7-0.2-0.9
	C68.1,21.3,67.7,20.9,67.1,20.4z M77.7,20.4c-0.7,0.7-1.4,1-2.3,1c-0.1,0-0.4,0-0.7,0l-0.2,0.3l1.4,2.9c-0.9,1-1.5,2-1.9,2.7
	c-0.3,0.6-0.4,1.2-0.4,1.9c0,1,0.6,2,1.9,3.1l3.4-2.7c0,0.6,0.1,1.1,0.3,1.5c0.2,0.4,0.6,0.8,1.1,1.2l2.4-2.1L82.4,30
	c-0.3,0.2-0.4,0.3-0.5,0.4c-0.1,0-0.2,0.1-0.3,0.1c-0.2,0-0.3-0.1-0.4-0.3c-0.1-0.2-0.2-0.7-0.2-1.5v-4.8c0-0.6,0-1,0.2-1.3
	c0.1-0.3,0.4-0.8,0.8-1.4l-0.4-0.1c-0.2,0.3-0.3,0.4-0.4,0.5c-0.1,0.1-0.2,0.1-0.4,0.1c-0.3,0-0.8-0.1-1.5-0.3
	C78.8,21,78.2,20.8,77.7,20.4z M95,20.4c-1.2,0.6-2,1-2.4,1.2c-0.5,0.2-1,0.4-1.7,0.7v6.4c0,0.7,0,1.2-0.1,1.4s-0.3,0.4-0.5,0.6V31
	c0.9,0.2,1.6,0.4,2,0.5c0.5,0.2,1.1,0.5,1.8,0.9l3.6-2.5l-0.2-0.3l-1.8,1.2l-2.6-1v-2l5-3.5L95,20.4z M125.4,20.4
	c-0.7,0.7-1.4,1-2.3,1c-0.1,0-0.4,0-0.7,0l-0.2,0.3l1.4,2.9c-0.9,1-1.5,2-1.9,2.7c-0.3,0.6-0.4,1.2-0.4,1.9c0,1,0.6,2,1.9,3.1
	l3.4-2.7c0,0.6,0.1,1.1,0.3,1.5c0.2,0.4,0.6,0.8,1.1,1.2l2.4-2.1l-0.3-0.3c-0.3,0.2-0.4,0.3-0.5,0.4c-0.1,0-0.2,0.1-0.3,0.1
	c-0.2,0-0.3-0.1-0.4-0.3c-0.1-0.2-0.2-0.7-0.2-1.5v-4.8c0-0.6,0-1,0.2-1.3c0.1-0.3,0.4-0.8,0.8-1.4l-0.4-0.1
	c-0.2,0.3-0.3,0.4-0.4,0.5c-0.1,0.1-0.2,0.1-0.4,0.1c-0.3,0-0.8-0.1-1.5-0.3C126.5,21,125.9,20.8,125.4,20.4z M133.4,20.4l-2.3,2
	l0.3,0.4c0.1-0.1,0.1-0.1,0.1-0.1c0.2-0.2,0.4-0.3,0.5-0.3c0.2,0,0.3,0.1,0.4,0.3c0.2,0.3,0.2,0.8,0.2,1.5v5.3c0,0.4,0,0.8-0.1,1
	c-0.1,0.2-0.2,0.5-0.3,0.8c-0.1,0.1-0.2,0.3-0.5,0.5c-0.5,0.5-0.8,1.1-0.8,1.6c0,0.6,0.2,1,0.7,1.4c0.5,0.4,1.1,0.6,2,0.6
	c0.8,0,1.5-0.2,2-0.6c0.3-0.2,0.5-0.5,0.5-0.7c0-0.1-0.1-0.2-0.1-0.3c-0.1-0.1-0.2-0.1-0.4-0.1c-0.1,0-0.2,0-0.3,0.1
	c-0.1,0.1-0.2,0.2-0.4,0.5c-0.1,0.2-0.3,0.4-0.4,0.5c-0.3,0.2-0.7,0.2-1.1,0.2c-0.6,0-1.1-0.2-1.5-0.5c-0.4-0.3-0.6-0.7-0.6-1.1
	c0-0.2,0.1-0.4,0.2-0.6c0.1-0.2,0.4-0.5,0.7-0.8c0.2-0.1,0.6-0.4,1.4-0.9c1.8-1.1,3.1-2,3.9-2.6c0.8-0.7,1.4-1.4,1.8-2.1
	c0.4-0.7,0.6-1.5,0.6-2.2c0-1.4-0.6-2.7-1.7-3.9l-3.4,2.7v-0.2c0-0.6-0.1-1-0.3-1.3C134.4,21.2,134,20.9,133.4,20.4z M44.2,21.2v3.3
	c-0.4-0.4-0.8-0.7-1.1-1c-0.4-0.2-0.8-0.5-1.3-0.7L44.2,21.2z M31.3,21.7l2.8,3.1l-2.9,2.1v-5.1L31.3,21.7z M93.3,21.7l2.8,3.1
	l-2.9,2.1v-5.1L93.3,21.7z M75.1,21.9l3.8,1.2v2.9l-2.5-1.2L75.1,21.9z M122.8,21.9l3.8,1.2v2.9l-2.5-1.2L122.8,21.9z M136.6,22.3
	c0.8,1,1.2,1.9,1.2,2.9c0,0.7-0.2,1.5-0.7,2.4c-0.4,0.8-1.2,1.6-2.2,2.4v-6.3L136.6,22.3z M54,22.6v3.5c-0.6-0.3-1.1-0.6-1.5-0.7
	c-0.4-0.1-0.8-0.2-1.3-0.2c-0.4,0-0.9,0.1-1.3,0.2c-0.4,0.1-0.9,0.3-1.5,0.7v-3.4c0.6,0.3,1,0.5,1.4,0.7c0.4,0.1,0.8,0.2,1.3,0.2
	c0.5,0,0.9-0.1,1.3-0.2C52.8,23.3,53.4,23,54,22.6z M115.9,22.8c0.6,0.3,1.1,0.6,1.3,0.9c0.2,0.3,0.4,0.7,0.4,1.2
	c-0.6,0.2-1.2,0.3-1.7,0.3c-0.5,0-1-0.1-1.7-0.3v-1.1C114.5,23.7,115.1,23.4,115.9,22.8z M76.2,25.1l2.7,1.3v2.7l-1.7,1.4
	c-1.1-0.8-1.6-1.8-1.6-3C75.5,26.8,75.8,26,76.2,25.1z M123.9,25.1l2.7,1.3v2.7l-1.7,1.4c-1.1-0.8-1.6-1.8-1.6-3
	C123.2,26.8,123.4,26,123.9,25.1z M114.2,25.4c0.6,0.2,1.1,0.3,1.7,0.3c0.5,0,1-0.1,1.7-0.3v2c-0.6-0.2-1.2-0.3-1.7-0.3
	c-0.5,0-1,0.1-1.6,0.3V25.4z M51.2,25.8c0.5,0,0.9,0.1,1.3,0.2c0.4,0.1,0.9,0.4,1.5,0.8v3.8c-1.1-0.5-2.2-0.9-3-1.2
	c-0.9-0.2-1.7-0.4-2.6-0.4v-2.3c0.6-0.4,1.1-0.6,1.5-0.8C50.3,25.8,50.7,25.8,51.2,25.8z M115.8,27.6c0.5,0,1.1,0.1,1.7,0.4v1.5
	c-0.8,0.2-1.6,0.5-2.4,0.9c-0.3-0.2-0.6-0.3-0.9-0.5v-2C114.8,27.7,115.3,27.6,115.8,27.6z"/>
</svg>
